# xmcd
#
# Track frame offsets: 
#        150
#        12552
#        24510
#        34887
#        42525
#        52620
#        62907
#        70650
#        79855
#        90600
#        99880
#        107702
#        117440
#        126422
#        134342
#        145290
#        154262
#        165660
#        174687
#        184227
#
# Disc length: 2597 seconds
#
# Revision: 1
# Processed by: cddbd v1.5.2PL0 Copyright (c) Steve Scherf et al.
# Submitted via: ExactAudioCopy v1.3
#
DISCID=180a2314
DTITLE=Jim Reeves - The Immortal Jim Reeves - Live Broadcast CD1
DYEAR=1996
DGENRE=Country
TTITLE0=Four Walls
TTITLE1=Mexican Joe
TTITLE2=Anna Marie
TTITLE3=Blue Boy
TTITLE4=Softly And Tenderly
TTITLE5=He'll Have To Go
TTITLE6=Bimbo
TTITLE7=I'd Like To Be
TTITLE8=Peace In The Valley
TTITLE9=Billy Bayou
TTITLE10=In A Mansion Stands My Love
TTITLE11=I'm Getting Better
TTITLE12=(Gimme That) Old Tyme Religion
TTITLE13=I Know One
TTITLE14=I Missed Me
TTITLE15=Yonder Comes A Sucker
TTITLE16=Am I Losing You?
TTITLE17=According To My Heart
TTITLE18=Beyond The Shadow Of A Doubt
TTITLE19=An Evening Prayer
EXTD=
EXTT0=
EXTT1=
EXTT2=
EXTT3=
EXTT4=
EXTT5=
EXTT6=
EXTT7=
EXTT8=
EXTT9=
EXTT10=
EXTT11=
EXTT12=
EXTT13=
EXTT14=
EXTT15=
EXTT16=
EXTT17=
EXTT18=
EXTT19=
PLAYORDER=
